<svg xmlns="http://www.w3.org/2000/svg" xmlns:xlink="http://www.w3.org/1999/xlink" width="1590" zoomAndPan="magnify" viewBox="0 0 1192.5 187.499995" height="250" preserveAspectRatio="xMidYMid meet" version="1.0"><defs><g/><clipPath id="78386a6e3c"><path d="M 1.335938 0 L 1190.664062 0 L 1190.664062 187 L 1.335938 187 Z M 1.335938 0 " clip-rule="nonzero"/></clipPath><clipPath id="31e6a4f7ac"><path d="M 183.527344 0 L 1190.664062 0 L 1190.664062 187 L 183.527344 187 Z M 183.527344 0 " clip-rule="nonzero"/></clipPath><clipPath id="dccfabbcd4"><path d="M 1.335938 0 L 203.667969 0 L 203.667969 187 L 1.335938 187 Z M 1.335938 0 " clip-rule="nonzero"/></clipPath><clipPath id="403c67dfab"><path d="M 46.046875 73 L 158.996094 73 L 158.996094 114 L 46.046875 114 Z M 46.046875 73 " clip-rule="nonzero"/></clipPath></defs><g clip-path="url(#78386a6e3c)"><path fill="#d8dee9" d="M 1.335938 -55.164062 L 1190.664062 -55.164062 L 1190.664062 242.539062 L 1.335938 242.539062 Z M 1.335938 -55.164062 " fill-opacity="1" fill-rule="nonzero"/></g><g clip-path="url(#31e6a4f7ac)"><path fill="#5e17eb" d="M 183.527344 0 L 1190.851562 0 L 1190.851562 187 L 183.527344 187 Z M 183.527344 0 " fill-opacity="1" fill-rule="nonzero"/></g><g clip-path="url(#dccfabbcd4)"><path fill="#ff7926" d="M 1.335938 0 L 203.679688 0 L 203.679688 187 L 1.335938 187 Z M 1.335938 0 " fill-opacity="1" fill-rule="nonzero"/></g><g fill="#ffffff" fill-opacity="1"><g transform="translate(313.061552, 115.629343)"><g><path d="M 18.0625 0 L 0.578125 -45.484375 L 11.6875 -45.484375 L 17.734375 -29.296875 L 23.1875 -14.875 L 34.625 -45.484375 L 45.671875 -45.484375 L 28.203125 0 Z M 18.0625 0 "/></g></g></g><g fill="#ffffff" fill-opacity="1"><g transform="translate(362.173851, 115.629343)"><g><path d="M 5.453125 0 L 5.453125 -45.484375 L 15.78125 -45.484375 L 15.78125 0 Z M 5.453125 0 "/></g></g></g><g fill="#ffffff" fill-opacity="1"><g transform="translate(386.275554, 115.629343)"><g><path d="M 21.3125 0.90625 C 17.5 0.90625 14.21875 0.28125 11.46875 -0.96875 C 8.71875 -2.226562 6.59375 -4.015625 5.09375 -6.328125 C 3.601562 -8.648438 2.859375 -11.367188 2.859375 -14.484375 L 13 -14.484375 C 13 -12.316406 13.742188 -10.625 15.234375 -9.40625 C 16.734375 -8.195312 18.738281 -7.59375 21.25 -7.59375 C 23.414062 -7.59375 25.125 -8.015625 26.375 -8.859375 C 27.632812 -9.710938 28.265625 -10.894531 28.265625 -12.40625 C 28.265625 -14.007812 27.503906 -15.304688 25.984375 -16.296875 C 24.472656 -17.296875 22.113281 -18.144531 18.90625 -18.84375 C 13.582031 -19.96875 9.640625 -21.675781 7.078125 -23.96875 C 4.523438 -26.269531 3.25 -29.257812 3.25 -32.9375 C 3.25 -37.09375 4.765625 -40.375 7.796875 -42.78125 C 10.828125 -45.1875 14.960938 -46.390625 20.203125 -46.390625 C 23.796875 -46.390625 26.914062 -45.769531 29.5625 -44.53125 C 32.207031 -43.300781 34.253906 -41.570312 35.703125 -39.34375 C 37.148438 -37.113281 37.875 -34.457031 37.875 -31.375 L 27.9375 -31.375 C 27.9375 -33.414062 27.265625 -35.019531 25.921875 -36.1875 C 24.578125 -37.351562 22.710938 -37.9375 20.328125 -37.9375 C 18.171875 -37.9375 16.460938 -37.515625 15.203125 -36.671875 C 13.941406 -35.828125 13.3125 -34.648438 13.3125 -33.140625 C 13.3125 -31.753906 14.003906 -30.582031 15.390625 -29.625 C 16.785156 -28.675781 19.210938 -27.789062 22.671875 -26.96875 C 28.347656 -25.625 32.441406 -23.820312 34.953125 -21.5625 C 37.460938 -19.3125 38.71875 -16.390625 38.71875 -12.796875 C 38.71875 -8.503906 37.171875 -5.144531 34.078125 -2.71875 C 30.984375 -0.300781 26.726562 0.90625 21.3125 0.90625 Z M 21.3125 0.90625 "/></g></g></g><g fill="#ffffff" fill-opacity="1"><g transform="translate(430.775516, 115.629343)"><g><path d="M 5.453125 0 L 5.453125 -45.484375 L 15.78125 -45.484375 L 15.78125 0 Z M 5.453125 0 "/></g></g></g><g fill="#ffffff" fill-opacity="1"><g transform="translate(454.877219, 115.629343)"><g><path d="M 16.375 0 L 16.375 -35.796875 L 1.953125 -35.796875 L 1.953125 -45.484375 L 41.125 -45.484375 L 41.125 -35.796875 L 26.703125 -35.796875 L 26.703125 0 Z M 16.375 0 "/></g></g></g><g fill="#ffffff" fill-opacity="1"><g transform="translate(500.806354, 115.629343)"><g/></g></g><g fill="#ffffff" fill-opacity="1"><g transform="translate(518.93149, 115.629343)"><g><path d="M 5.453125 0 L 5.453125 -45.484375 L 14.234375 -45.484375 L 30.40625 -21.890625 L 46.515625 -45.484375 L 55.21875 -45.484375 L 55.21875 0 L 44.953125 0 L 44.953125 -27.359375 L 33.90625 -11.234375 L 26.765625 -11.234375 L 15.71875 -27.421875 L 15.71875 0 Z M 5.453125 0 "/></g></g></g><g fill="#ffffff" fill-opacity="1"><g transform="translate(582.465506, 115.629343)"><g><path d="M 17.34375 0 L 17.34375 -15.921875 L 0.578125 -45.484375 L 12.34375 -45.484375 L 18 -34.953125 L 22.546875 -26.703125 L 27.03125 -34.953125 L 32.609375 -45.484375 L 44.375 -45.484375 L 27.671875 -16.046875 L 27.671875 0 Z M 17.34375 0 "/></g></g></g><g fill="#ffffff" fill-opacity="1"><g transform="translate(630.278557, 115.629343)"><g/></g></g><g fill="#ffffff" fill-opacity="1"><g transform="translate(648.403705, 115.629343)"><g><path d="M 5.453125 0 L 5.453125 -45.484375 L 23.265625 -45.484375 C 26.941406 -45.484375 30.125 -44.8125 32.8125 -43.46875 C 35.5 -42.125 37.585938 -40.21875 39.078125 -37.75 C 40.566406 -35.28125 41.3125 -32.378906 41.3125 -29.046875 C 41.3125 -25.753906 40.566406 -22.875 39.078125 -20.40625 C 37.585938 -17.9375 35.5 -16.03125 32.8125 -14.6875 C 30.125 -13.34375 26.941406 -12.671875 23.265625 -12.671875 L 15.78125 -12.671875 L 15.78125 0 Z M 15.71875 -21.5625 L 22.421875 -21.5625 C 25.097656 -21.5625 27.160156 -22.203125 28.609375 -23.484375 C 30.066406 -24.765625 30.796875 -26.59375 30.796875 -28.96875 C 30.796875 -31.351562 30.066406 -33.195312 28.609375 -34.5 C 27.160156 -35.800781 25.097656 -36.453125 22.421875 -36.453125 L 15.71875 -36.453125 Z M 15.71875 -21.5625 "/></g></g></g><g fill="#ffffff" fill-opacity="1"><g transform="translate(694.462777, 115.629343)"><g><path d="M 27.03125 0.90625 C 22.3125 0.90625 18.117188 -0.0976562 14.453125 -2.109375 C 10.796875 -4.117188 7.9375 -6.898438 5.875 -10.453125 C 3.820312 -14.003906 2.796875 -18.097656 2.796875 -22.734375 C 2.796875 -27.367188 3.820312 -31.460938 5.875 -35.015625 C 7.9375 -38.566406 10.796875 -41.347656 14.453125 -43.359375 C 18.117188 -45.378906 22.3125 -46.390625 27.03125 -46.390625 C 31.789062 -46.390625 35.988281 -45.378906 39.625 -43.359375 C 43.269531 -41.347656 46.128906 -38.566406 48.203125 -35.015625 C 50.285156 -31.460938 51.328125 -27.367188 51.328125 -22.734375 C 51.328125 -18.097656 50.285156 -14.003906 48.203125 -10.453125 C 46.128906 -6.898438 43.269531 -4.117188 39.625 -2.109375 C 35.988281 -0.0976562 31.789062 0.90625 27.03125 0.90625 Z M 13.3125 -22.734375 C 13.3125 -20.003906 13.894531 -17.597656 15.0625 -15.515625 C 16.238281 -13.441406 17.851562 -11.820312 19.90625 -10.65625 C 21.96875 -9.488281 24.34375 -8.90625 27.03125 -8.90625 C 29.757812 -8.90625 32.148438 -9.488281 34.203125 -10.65625 C 36.265625 -11.820312 37.867188 -13.441406 39.015625 -15.515625 C 40.160156 -17.597656 40.734375 -20.003906 40.734375 -22.734375 C 40.734375 -25.460938 40.160156 -27.863281 39.015625 -29.9375 C 37.867188 -32.019531 36.265625 -33.644531 34.203125 -34.8125 C 32.148438 -35.988281 29.757812 -36.578125 27.03125 -36.578125 C 24.34375 -36.578125 21.96875 -35.988281 19.90625 -34.8125 C 17.851562 -33.644531 16.238281 -32.019531 15.0625 -29.9375 C 13.894531 -27.863281 13.3125 -25.460938 13.3125 -22.734375 Z M 13.3125 -22.734375 "/></g></g></g><g fill="#ffffff" fill-opacity="1"><g transform="translate(751.435558, 115.629343)"><g><path d="M 5.453125 0 L 5.453125 -45.484375 L 24.890625 -45.484375 C 28.347656 -45.484375 31.351562 -44.851562 33.90625 -43.59375 C 36.46875 -42.332031 38.441406 -40.53125 39.828125 -38.1875 C 41.210938 -35.851562 41.90625 -33.066406 41.90625 -29.828125 C 41.90625 -26.484375 41.144531 -23.609375 39.625 -21.203125 C 38.113281 -18.804688 35.992188 -17 33.265625 -15.78125 L 42.6875 0 L 30.734375 0 L 22.609375 -14.15625 L 15.78125 -14.15625 L 15.78125 0 Z M 15.65625 -22.875 L 23.515625 -22.875 C 26.078125 -22.875 28.035156 -23.46875 29.390625 -24.65625 C 30.753906 -25.84375 31.4375 -27.539062 31.4375 -29.75 C 31.4375 -31.957031 30.753906 -33.65625 29.390625 -34.84375 C 28.035156 -36.039062 26.078125 -36.640625 23.515625 -36.640625 L 15.65625 -36.640625 Z M 15.65625 -22.875 "/></g></g></g><g fill="#ffffff" fill-opacity="1"><g transform="translate(800.028134, 115.629343)"><g><path d="M 16.375 0 L 16.375 -35.796875 L 1.953125 -35.796875 L 1.953125 -45.484375 L 41.125 -45.484375 L 41.125 -35.796875 L 26.703125 -35.796875 L 26.703125 0 Z M 16.375 0 "/></g></g></g><g fill="#ffffff" fill-opacity="1"><g transform="translate(845.957293, 115.629343)"><g><path d="M 5.453125 0 L 5.453125 -45.484375 L 33.984375 -45.484375 L 33.984375 -36.125 L 15.78125 -36.125 L 15.78125 -24.75 L 32.296875 -24.75 L 32.296875 -15.65625 L 15.78125 -15.65625 L 15.78125 0 Z M 5.453125 0 "/></g></g></g><g fill="#ffffff" fill-opacity="1"><g transform="translate(885.650012, 115.629343)"><g><path d="M 27.03125 0.90625 C 22.3125 0.90625 18.117188 -0.0976562 14.453125 -2.109375 C 10.796875 -4.117188 7.9375 -6.898438 5.875 -10.453125 C 3.820312 -14.003906 2.796875 -18.097656 2.796875 -22.734375 C 2.796875 -27.367188 3.820312 -31.460938 5.875 -35.015625 C 7.9375 -38.566406 10.796875 -41.347656 14.453125 -43.359375 C 18.117188 -45.378906 22.3125 -46.390625 27.03125 -46.390625 C 31.789062 -46.390625 35.988281 -45.378906 39.625 -43.359375 C 43.269531 -41.347656 46.128906 -38.566406 48.203125 -35.015625 C 50.285156 -31.460938 51.328125 -27.367188 51.328125 -22.734375 C 51.328125 -18.097656 50.285156 -14.003906 48.203125 -10.453125 C 46.128906 -6.898438 43.269531 -4.117188 39.625 -2.109375 C 35.988281 -0.0976562 31.789062 0.90625 27.03125 0.90625 Z M 13.3125 -22.734375 C 13.3125 -20.003906 13.894531 -17.597656 15.0625 -15.515625 C 16.238281 -13.441406 17.851562 -11.820312 19.90625 -10.65625 C 21.96875 -9.488281 24.34375 -8.90625 27.03125 -8.90625 C 29.757812 -8.90625 32.148438 -9.488281 34.203125 -10.65625 C 36.265625 -11.820312 37.867188 -13.441406 39.015625 -15.515625 C 40.160156 -17.597656 40.734375 -20.003906 40.734375 -22.734375 C 40.734375 -25.460938 40.160156 -27.863281 39.015625 -29.9375 C 37.867188 -32.019531 36.265625 -33.644531 34.203125 -34.8125 C 32.148438 -35.988281 29.757812 -36.578125 27.03125 -36.578125 C 24.34375 -36.578125 21.96875 -35.988281 19.90625 -34.8125 C 17.851562 -33.644531 16.238281 -32.019531 15.0625 -29.9375 C 13.894531 -27.863281 13.3125 -25.460938 13.3125 -22.734375 Z M 13.3125 -22.734375 "/></g></g></g><g fill="#ffffff" fill-opacity="1"><g transform="translate(942.622793, 115.629343)"><g><path d="M 5.453125 0 L 5.453125 -45.484375 L 15.78125 -45.484375 L 15.78125 -9.6875 L 35.671875 -9.6875 L 35.671875 0 Z M 5.453125 0 "/></g></g></g><g fill="#ffffff" fill-opacity="1"><g transform="translate(982.90018, 115.629343)"><g><path d="M 5.453125 0 L 5.453125 -45.484375 L 15.78125 -45.484375 L 15.78125 0 Z M 5.453125 0 "/></g></g></g><g fill="#ffffff" fill-opacity="1"><g transform="translate(1007.001871, 115.629343)"><g><path d="M 27.03125 0.90625 C 22.3125 0.90625 18.117188 -0.0976562 14.453125 -2.109375 C 10.796875 -4.117188 7.9375 -6.898438 5.875 -10.453125 C 3.820312 -14.003906 2.796875 -18.097656 2.796875 -22.734375 C 2.796875 -27.367188 3.820312 -31.460938 5.875 -35.015625 C 7.9375 -38.566406 10.796875 -41.347656 14.453125 -43.359375 C 18.117188 -45.378906 22.3125 -46.390625 27.03125 -46.390625 C 31.789062 -46.390625 35.988281 -45.378906 39.625 -43.359375 C 43.269531 -41.347656 46.128906 -38.566406 48.203125 -35.015625 C 50.285156 -31.460938 51.328125 -27.367188 51.328125 -22.734375 C 51.328125 -18.097656 50.285156 -14.003906 48.203125 -10.453125 C 46.128906 -6.898438 43.269531 -4.117188 39.625 -2.109375 C 35.988281 -0.0976562 31.789062 0.90625 27.03125 0.90625 Z M 13.3125 -22.734375 C 13.3125 -20.003906 13.894531 -17.597656 15.0625 -15.515625 C 16.238281 -13.441406 17.851562 -11.820312 19.90625 -10.65625 C 21.96875 -9.488281 24.34375 -8.90625 27.03125 -8.90625 C 29.757812 -8.90625 32.148438 -9.488281 34.203125 -10.65625 C 36.265625 -11.820312 37.867188 -13.441406 39.015625 -15.515625 C 40.160156 -17.597656 40.734375 -20.003906 40.734375 -22.734375 C 40.734375 -25.460938 40.160156 -27.863281 39.015625 -29.9375 C 37.867188 -32.019531 36.265625 -33.644531 34.203125 -34.8125 C 32.148438 -35.988281 29.757812 -36.578125 27.03125 -36.578125 C 24.34375 -36.578125 21.96875 -35.988281 19.90625 -34.8125 C 17.851562 -33.644531 16.238281 -32.019531 15.0625 -29.9375 C 13.894531 -27.863281 13.3125 -25.460938 13.3125 -22.734375 Z M 13.3125 -22.734375 "/></g></g></g><g clip-path="url(#403c67dfab)"><path fill="#ffffff" d="M 132.714844 74.382812 C 131.6875 75.621094 131.859375 77.457031 133.097656 78.484375 L 147.695312 90.585938 L 49.21875 90.585938 C 47.609375 90.585938 46.304688 91.890625 46.304688 93.5 C 46.304688 95.109375 47.609375 96.414062 49.21875 96.414062 L 147.695312 96.414062 L 133.097656 108.515625 C 131.859375 109.539062 131.6875 111.378906 132.714844 112.617188 C 133.742188 113.855469 135.578125 114.027344 136.816406 113 L 157.636719 95.742188 C 158.304688 95.191406 158.691406 94.367188 158.691406 93.5 C 158.691406 92.632812 158.304688 91.8125 157.636719 91.257812 L 136.816406 74 C 135.578125 72.972656 133.742188 73.144531 132.714844 74.382812 " fill-opacity="1" fill-rule="nonzero"/></g></svg>