<svg xmlns="http://www.w3.org/2000/svg" xmlns:xlink="http://www.w3.org/1999/xlink" width="1590" zoomAndPan="magnify" viewBox="0 0 1192.5 187.499995" height="250" preserveAspectRatio="xMidYMid meet" version="1.0"><defs><g/><clipPath id="311b0818f9"><path d="M 1.335938 0 L 1190.664062 0 L 1190.664062 187 L 1.335938 187 Z M 1.335938 0 " clip-rule="nonzero"/></clipPath><clipPath id="133434cc97"><path d="M 183.527344 0 L 1190.664062 0 L 1190.664062 187 L 183.527344 187 Z M 183.527344 0 " clip-rule="nonzero"/></clipPath><clipPath id="d3fececd8e"><path d="M 1.335938 0 L 203.667969 0 L 203.667969 187 L 1.335938 187 Z M 1.335938 0 " clip-rule="nonzero"/></clipPath><clipPath id="0de2c2665d"><path d="M 82 37.050781 L 123 37.050781 L 123 150 L 82 150 Z M 82 37.050781 " clip-rule="nonzero"/></clipPath></defs><g clip-path="url(#311b0818f9)"><path fill="#d8dee9" d="M 1.335938 -55.164062 L 1190.664062 -55.164062 L 1190.664062 242.539062 L 1.335938 242.539062 Z M 1.335938 -55.164062 " fill-opacity="1" fill-rule="nonzero"/></g><g clip-path="url(#133434cc97)"><path fill="#feb71b" d="M 183.527344 0 L 1190.851562 0 L 1190.851562 187 L 183.527344 187 Z M 183.527344 0 " fill-opacity="1" fill-rule="nonzero"/></g><g clip-path="url(#d3fececd8e)"><path fill="#0273ff" d="M 1.335938 0 L 203.679688 0 L 203.679688 187 L 1.335938 187 Z M 1.335938 0 " fill-opacity="1" fill-rule="nonzero"/></g><g fill="#2b2b2b" fill-opacity="1"><g transform="translate(249.783784, 115.629343)"><g><path d="M 5.453125 0 L 5.453125 -45.484375 L 23.453125 -45.484375 C 28.265625 -45.484375 32.46875 -44.53125 36.0625 -42.625 C 39.65625 -40.71875 42.445312 -38.050781 44.4375 -34.625 C 46.425781 -31.207031 47.421875 -27.242188 47.421875 -22.734375 C 47.421875 -18.191406 46.425781 -14.21875 44.4375 -10.8125 C 42.445312 -7.414062 39.65625 -4.765625 36.0625 -2.859375 C 32.46875 -0.953125 28.265625 0 23.453125 0 Z M 15.78125 -9.484375 L 23.265625 -9.484375 C 25.941406 -9.484375 28.296875 -10.035156 30.328125 -11.140625 C 32.367188 -12.242188 33.960938 -13.789062 35.109375 -15.78125 C 36.265625 -17.78125 36.84375 -20.097656 36.84375 -22.734375 C 36.84375 -25.421875 36.265625 -27.75 35.109375 -29.71875 C 33.960938 -31.6875 32.359375 -33.222656 30.296875 -34.328125 C 28.242188 -35.441406 25.851562 -36 23.125 -36 L 15.78125 -36 Z M 15.78125 -9.484375 "/></g></g></g><g fill="#2b2b2b" fill-opacity="1"><g transform="translate(302.793841, 115.629343)"><g><path d="M 27.03125 0.90625 C 22.3125 0.90625 18.117188 -0.0976562 14.453125 -2.109375 C 10.796875 -4.117188 7.9375 -6.898438 5.875 -10.453125 C 3.820312 -14.003906 2.796875 -18.097656 2.796875 -22.734375 C 2.796875 -27.367188 3.820312 -31.460938 5.875 -35.015625 C 7.9375 -38.566406 10.796875 -41.347656 14.453125 -43.359375 C 18.117188 -45.378906 22.3125 -46.390625 27.03125 -46.390625 C 31.789062 -46.390625 35.988281 -45.378906 39.625 -43.359375 C 43.269531 -41.347656 46.128906 -38.566406 48.203125 -35.015625 C 50.285156 -31.460938 51.328125 -27.367188 51.328125 -22.734375 C 51.328125 -18.097656 50.285156 -14.003906 48.203125 -10.453125 C 46.128906 -6.898438 43.269531 -4.117188 39.625 -2.109375 C 35.988281 -0.0976562 31.789062 0.90625 27.03125 0.90625 Z M 13.3125 -22.734375 C 13.3125 -20.003906 13.894531 -17.597656 15.0625 -15.515625 C 16.238281 -13.441406 17.851562 -11.820312 19.90625 -10.65625 C 21.96875 -9.488281 24.34375 -8.90625 27.03125 -8.90625 C 29.757812 -8.90625 32.148438 -9.488281 34.203125 -10.65625 C 36.265625 -11.820312 37.867188 -13.441406 39.015625 -15.515625 C 40.160156 -17.597656 40.734375 -20.003906 40.734375 -22.734375 C 40.734375 -25.460938 40.160156 -27.863281 39.015625 -29.9375 C 37.867188 -32.019531 36.265625 -33.644531 34.203125 -34.8125 C 32.148438 -35.988281 29.757812 -36.578125 27.03125 -36.578125 C 24.34375 -36.578125 21.96875 -35.988281 19.90625 -34.8125 C 17.851562 -33.644531 16.238281 -32.019531 15.0625 -29.9375 C 13.894531 -27.863281 13.3125 -25.460938 13.3125 -22.734375 Z M 13.3125 -22.734375 "/></g></g></g><g fill="#2b2b2b" fill-opacity="1"><g transform="translate(359.766622, 115.629343)"><g><path d="M 15.265625 0 L 0.65625 -45.484375 L 11.625 -45.484375 L 15.984375 -31.640625 L 20.796875 -16.703125 L 25.984375 -31.640625 L 30.859375 -45.484375 L 40.671875 -45.484375 L 45.546875 -31.640625 L 50.8125 -16.5 L 55.671875 -31.640625 L 60.03125 -45.484375 L 70.953125 -45.484375 L 56.265625 0 L 46.125 0 L 35.796875 -29.4375 L 25.46875 0 Z M 15.265625 0 "/></g></g></g><g fill="#2b2b2b" fill-opacity="1"><g transform="translate(434.214336, 115.629343)"><g><path d="M 5.453125 0 L 5.453125 -45.484375 L 14.234375 -45.484375 L 34.296875 -17.796875 L 34.296875 -45.484375 L 44.5625 -45.484375 L 44.5625 0 L 35.796875 0 L 15.71875 -27.875 L 15.71875 0 Z M 5.453125 0 "/></g></g></g><g fill="#2b2b2b" fill-opacity="1"><g transform="translate(487.094468, 115.629343)"><g><path d="M 5.453125 0 L 5.453125 -45.484375 L 15.78125 -45.484375 L 15.78125 -9.6875 L 35.671875 -9.6875 L 35.671875 0 Z M 5.453125 0 "/></g></g></g><g fill="#2b2b2b" fill-opacity="1"><g transform="translate(527.371854, 115.629343)"><g><path d="M 27.03125 0.90625 C 22.3125 0.90625 18.117188 -0.0976562 14.453125 -2.109375 C 10.796875 -4.117188 7.9375 -6.898438 5.875 -10.453125 C 3.820312 -14.003906 2.796875 -18.097656 2.796875 -22.734375 C 2.796875 -27.367188 3.820312 -31.460938 5.875 -35.015625 C 7.9375 -38.566406 10.796875 -41.347656 14.453125 -43.359375 C 18.117188 -45.378906 22.3125 -46.390625 27.03125 -46.390625 C 31.789062 -46.390625 35.988281 -45.378906 39.625 -43.359375 C 43.269531 -41.347656 46.128906 -38.566406 48.203125 -35.015625 C 50.285156 -31.460938 51.328125 -27.367188 51.328125 -22.734375 C 51.328125 -18.097656 50.285156 -14.003906 48.203125 -10.453125 C 46.128906 -6.898438 43.269531 -4.117188 39.625 -2.109375 C 35.988281 -0.0976562 31.789062 0.90625 27.03125 0.90625 Z M 13.3125 -22.734375 C 13.3125 -20.003906 13.894531 -17.597656 15.0625 -15.515625 C 16.238281 -13.441406 17.851562 -11.820312 19.90625 -10.65625 C 21.96875 -9.488281 24.34375 -8.90625 27.03125 -8.90625 C 29.757812 -8.90625 32.148438 -9.488281 34.203125 -10.65625 C 36.265625 -11.820312 37.867188 -13.441406 39.015625 -15.515625 C 40.160156 -17.597656 40.734375 -20.003906 40.734375 -22.734375 C 40.734375 -25.460938 40.160156 -27.863281 39.015625 -29.9375 C 37.867188 -32.019531 36.265625 -33.644531 34.203125 -34.8125 C 32.148438 -35.988281 29.757812 -36.578125 27.03125 -36.578125 C 24.34375 -36.578125 21.96875 -35.988281 19.90625 -34.8125 C 17.851562 -33.644531 16.238281 -32.019531 15.0625 -29.9375 C 13.894531 -27.863281 13.3125 -25.460938 13.3125 -22.734375 Z M 13.3125 -22.734375 "/></g></g></g><g fill="#2b2b2b" fill-opacity="1"><g transform="translate(584.344635, 115.629343)"><g><path d="M 0.578125 0 L 18.640625 -45.484375 L 28.78125 -45.484375 L 46.84375 0 L 35.796875 0 L 32.75 -7.859375 L 14.6875 -7.859375 L 11.625 0 Z M 17.34375 -15.984375 L 30.140625 -15.984375 L 23.71875 -32.609375 Z M 17.34375 -15.984375 "/></g></g></g><g fill="#2b2b2b" fill-opacity="1"><g transform="translate(634.626246, 115.629343)"><g><path d="M 5.453125 0 L 5.453125 -45.484375 L 23.453125 -45.484375 C 28.265625 -45.484375 32.46875 -44.53125 36.0625 -42.625 C 39.65625 -40.71875 42.445312 -38.050781 44.4375 -34.625 C 46.425781 -31.207031 47.421875 -27.242188 47.421875 -22.734375 C 47.421875 -18.191406 46.425781 -14.21875 44.4375 -10.8125 C 42.445312 -7.414062 39.65625 -4.765625 36.0625 -2.859375 C 32.46875 -0.953125 28.265625 0 23.453125 0 Z M 15.78125 -9.484375 L 23.265625 -9.484375 C 25.941406 -9.484375 28.296875 -10.035156 30.328125 -11.140625 C 32.367188 -12.242188 33.960938 -13.789062 35.109375 -15.78125 C 36.265625 -17.78125 36.84375 -20.097656 36.84375 -22.734375 C 36.84375 -25.421875 36.265625 -27.75 35.109375 -29.71875 C 33.960938 -31.6875 32.359375 -33.222656 30.296875 -34.328125 C 28.242188 -35.441406 25.851562 -36 23.125 -36 L 15.78125 -36 Z M 15.78125 -9.484375 "/></g></g></g><g fill="#2b2b2b" fill-opacity="1"><g transform="translate(687.636291, 115.629343)"><g/></g></g><g fill="#2b2b2b" fill-opacity="1"><g transform="translate(705.761416, 115.629343)"><g><path d="M 5.453125 0 L 5.453125 -45.484375 L 14.234375 -45.484375 L 30.40625 -21.890625 L 46.515625 -45.484375 L 55.21875 -45.484375 L 55.21875 0 L 44.953125 0 L 44.953125 -27.359375 L 33.90625 -11.234375 L 26.765625 -11.234375 L 15.71875 -27.421875 L 15.71875 0 Z M 5.453125 0 "/></g></g></g><g fill="#2b2b2b" fill-opacity="1"><g transform="translate(769.295432, 115.629343)"><g><path d="M 17.34375 0 L 17.34375 -15.921875 L 0.578125 -45.484375 L 12.34375 -45.484375 L 18 -34.953125 L 22.546875 -26.703125 L 27.03125 -34.953125 L 32.609375 -45.484375 L 44.375 -45.484375 L 27.671875 -16.046875 L 27.671875 0 Z M 17.34375 0 "/></g></g></g><g fill="#2b2b2b" fill-opacity="1"><g transform="translate(817.108483, 115.629343)"><g/></g></g><g fill="#2b2b2b" fill-opacity="1"><g transform="translate(835.233608, 115.629343)"><g><path d="M 5.453125 0 L 5.453125 -45.484375 L 24.890625 -45.484375 C 28.347656 -45.484375 31.351562 -44.851562 33.90625 -43.59375 C 36.46875 -42.332031 38.441406 -40.53125 39.828125 -38.1875 C 41.210938 -35.851562 41.90625 -33.066406 41.90625 -29.828125 C 41.90625 -26.484375 41.144531 -23.609375 39.625 -21.203125 C 38.113281 -18.804688 35.992188 -17 33.265625 -15.78125 L 42.6875 0 L 30.734375 0 L 22.609375 -14.15625 L 15.78125 -14.15625 L 15.78125 0 Z M 15.65625 -22.875 L 23.515625 -22.875 C 26.078125 -22.875 28.035156 -23.46875 29.390625 -24.65625 C 30.753906 -25.84375 31.4375 -27.539062 31.4375 -29.75 C 31.4375 -31.957031 30.753906 -33.65625 29.390625 -34.84375 C 28.035156 -36.039062 26.078125 -36.640625 23.515625 -36.640625 L 15.65625 -36.640625 Z M 15.65625 -22.875 "/></g></g></g><g fill="#2b2b2b" fill-opacity="1"><g transform="translate(883.826184, 115.629343)"><g><path d="M 5.453125 0 L 5.453125 -45.484375 L 35.34375 -45.484375 L 35.34375 -36.765625 L 15.71875 -36.765625 L 15.71875 -27.359375 L 33.59375 -27.359375 L 33.59375 -18.71875 L 15.71875 -18.71875 L 15.71875 -8.765625 L 36.0625 -8.765625 L 36.0625 0 Z M 5.453125 0 "/></g></g></g><g fill="#2b2b2b" fill-opacity="1"><g transform="translate(926.052431, 115.629343)"><g><path d="M 21.3125 0.90625 C 17.5 0.90625 14.21875 0.28125 11.46875 -0.96875 C 8.71875 -2.226562 6.59375 -4.015625 5.09375 -6.328125 C 3.601562 -8.648438 2.859375 -11.367188 2.859375 -14.484375 L 13 -14.484375 C 13 -12.316406 13.742188 -10.625 15.234375 -9.40625 C 16.734375 -8.195312 18.738281 -7.59375 21.25 -7.59375 C 23.414062 -7.59375 25.125 -8.015625 26.375 -8.859375 C 27.632812 -9.710938 28.265625 -10.894531 28.265625 -12.40625 C 28.265625 -14.007812 27.503906 -15.304688 25.984375 -16.296875 C 24.472656 -17.296875 22.113281 -18.144531 18.90625 -18.84375 C 13.582031 -19.96875 9.640625 -21.675781 7.078125 -23.96875 C 4.523438 -26.269531 3.25 -29.257812 3.25 -32.9375 C 3.25 -37.09375 4.765625 -40.375 7.796875 -42.78125 C 10.828125 -45.1875 14.960938 -46.390625 20.203125 -46.390625 C 23.796875 -46.390625 26.914062 -45.769531 29.5625 -44.53125 C 32.207031 -43.300781 34.253906 -41.570312 35.703125 -39.34375 C 37.148438 -37.113281 37.875 -34.457031 37.875 -31.375 L 27.9375 -31.375 C 27.9375 -33.414062 27.265625 -35.019531 25.921875 -36.1875 C 24.578125 -37.351562 22.710938 -37.9375 20.328125 -37.9375 C 18.171875 -37.9375 16.460938 -37.515625 15.203125 -36.671875 C 13.941406 -35.828125 13.3125 -34.648438 13.3125 -33.140625 C 13.3125 -31.753906 14.003906 -30.582031 15.390625 -29.625 C 16.785156 -28.675781 19.210938 -27.789062 22.671875 -26.96875 C 28.347656 -25.625 32.441406 -23.820312 34.953125 -21.5625 C 37.460938 -19.3125 38.71875 -16.390625 38.71875 -12.796875 C 38.71875 -8.503906 37.171875 -5.144531 34.078125 -2.71875 C 30.984375 -0.300781 26.726562 0.90625 21.3125 0.90625 Z M 21.3125 0.90625 "/></g></g></g><g fill="#2b2b2b" fill-opacity="1"><g transform="translate(970.552381, 115.629343)"><g><path d="M 24.03125 0.90625 C 20.09375 0.90625 16.703125 0.117188 13.859375 -1.453125 C 11.023438 -3.035156 8.835938 -5.289062 7.296875 -8.21875 C 5.765625 -11.144531 5 -14.644531 5 -18.71875 L 5 -45.484375 L 15.328125 -45.484375 L 15.328125 -19.421875 C 15.328125 -12.410156 18.226562 -8.90625 24.03125 -8.90625 C 29.84375 -8.90625 32.75 -12.410156 32.75 -19.421875 L 32.75 -45.484375 L 43.078125 -45.484375 L 43.078125 -18.71875 C 43.078125 -14.644531 42.304688 -11.144531 40.765625 -8.21875 C 39.234375 -5.289062 37.046875 -3.035156 34.203125 -1.453125 C 31.367188 0.117188 27.976562 0.90625 24.03125 0.90625 Z M 24.03125 0.90625 "/></g></g></g><g fill="#2b2b2b" fill-opacity="1"><g transform="translate(1021.483628, 115.629343)"><g><path d="M 5.453125 0 L 5.453125 -45.484375 L 14.234375 -45.484375 L 30.40625 -21.890625 L 46.515625 -45.484375 L 55.21875 -45.484375 L 55.21875 0 L 44.953125 0 L 44.953125 -27.359375 L 33.90625 -11.234375 L 26.765625 -11.234375 L 15.71875 -27.421875 L 15.71875 0 Z M 5.453125 0 "/></g></g></g><g fill="#2b2b2b" fill-opacity="1"><g transform="translate(1085.017643, 115.629343)"><g><path d="M 5.453125 0 L 5.453125 -45.484375 L 35.34375 -45.484375 L 35.34375 -36.765625 L 15.71875 -36.765625 L 15.71875 -27.359375 L 33.59375 -27.359375 L 33.59375 -18.71875 L 15.71875 -18.71875 L 15.71875 -8.765625 L 36.0625 -8.765625 L 36.0625 0 Z M 5.453125 0 "/></g></g></g><g clip-path="url(#0de2c2665d)"><path fill="#ffffff" d="M 121.617188 123.714844 C 120.375 122.6875 118.539062 122.859375 117.511719 124.097656 L 105.414062 138.699219 L 105.414062 40.21875 C 105.414062 38.613281 104.109375 37.308594 102.5 37.308594 C 100.890625 37.308594 99.585938 38.613281 99.585938 40.21875 L 99.585938 138.699219 L 87.484375 124.097656 C 86.457031 122.859375 84.621094 122.6875 83.378906 123.714844 C 82.140625 124.742188 81.96875 126.582031 82.996094 127.820312 L 100.253906 148.640625 C 100.808594 149.308594 101.628906 149.695312 102.5 149.695312 C 103.367188 149.695312 104.1875 149.308594 104.742188 148.640625 L 122 127.820312 C 123.027344 126.582031 122.855469 124.742188 121.617188 123.714844 " fill-opacity="1" fill-rule="nonzero"/></g></svg>